<svg clip-rule="evenodd" fill-rule="evenodd" stroke-linejoin="round" stroke-miterlimit="2" viewBox="0 0 560 400" xmlns="http://www.w3.org/2000/svg"><g transform="matrix(.88824644364 0 0 .88824644364 30.0008 155.581)"><path d="m175.26 60.4c-4.846.12-9.63-1.127-13.8-3.6-3.909-2.358-7.093-5.75-9.2-9.8-2.246-4.354-3.367-9.202-3.26-14.1-.04-3.793.639-7.559 2-11.1 1.256-3.191 3.163-6.086 5.6-8.5 2.399-2.382 5.257-4.254 8.4-5.5 7.811-3.091 16.601-2.578 24 1.4 3.919 2.2 7.142 5.458 9.3 9.4 2.362 4.316 3.535 9.182 3.4 14.1.054 3.72-.59 7.418-1.9 10.9-2.421 6.572-7.455 11.859-13.9 14.6-3.322 1.566-6.969 2.32-10.64 2.2zm1.5-4.2c3.044.103 6.026-.891 8.4-2.8 2.435-2.036 4.268-4.699 5.3-7.7 1.279-3.491 1.923-7.182 1.9-10.9.067-4.316-.736-8.601-2.36-12.6-1.363-3.504-3.643-6.578-6.6-8.9-2.692-2.16-6.049-3.326-9.5-3.3-2.847-.028-5.626.887-7.9 2.6-2.428 1.922-4.322 4.436-5.5 7.3-1.388 3.498-2.068 7.237-2 11-.014 3.205.389 6.399 1.2 9.5.756 2.86 1.935 5.59 3.5 8.1 1.453 2.273 3.402 4.188 5.7 5.6 2.367 1.432 5.094 2.161 7.86 2.1zm59.375-4.081c-.183.332-.375.659-.575.981-.43.724-.898 1.424-1.4 2.1-.63.92-1.407 1.731-2.3 2.4-1.136.859-2.38 1.565-3.7 2.1-1.522.623-3.155.93-4.8.9-2.774.067-5.522-.551-8-1.8-2.282-1.269-4.104-3.23-5.2-5.6-1.35-3.086-1.999-6.433-1.9-9.8-.076-3.56.786-7.079 2.5-10.2 1.693-3.008 4.14-5.524 7.1-7.3 3.266-1.928 7.009-2.898 10.8-2.8 1.279-.032 2.556.103 3.8.4.855.187 1.702.407 2.54.66v-9.46h.009c-.008-.881-.146-1.757-.409-2.6-.281-.816-.901-1.473-1.7-1.8-1.242-.477-2.572-.681-3.9-.6.017-.604.084-1.207.2-1.8.094-.567.298-1.111.6-1.6 1.343-.008 2.682-.142 4-.4 1.6-.3 3.1-.6 4.5-1 1.05-.399 2.072-.866 3.06-1.4.538.22.993.606 1.3 1.1.459.712.67 1.556.6 2.4v42.026c.02.865.12 1.727.3 2.574.193.769.702 1.423 1.4 1.8.979.41 2.042.582 3.1.5.05.666.05 1.334 0 2-.107.68-.275 1.349-.5 2-1.681.113-3.352.347-5 .7-1.668.352-3.282.923-4.8 1.7-.582-.285-1.094-.695-1.5-1.2-.502-1.023-.71-2.166-.6-3.3-.004-.975.096-1.947.3-2.9.052-.233.11-.493.175-.781zm-1.135-22.221c-.705-.619-1.453-1.186-2.24-1.698-1.339-.762-2.861-1.142-4.4-1.1-1.191.013-2.373.215-3.5.6-1.324.508-2.544 1.254-3.6 2.2-1.303 1.275-2.265 2.857-2.8 4.6-.796 2.487-1.168 5.09-1.1 7.7-.115 2.565.329 5.124 1.3 7.5.712 1.665 1.851 3.114 3.3 4.2 1.089.853 2.418 1.342 3.8 1.4 1.571-.033 3.099-.52 4.4-1.4 1.594-1.155 2.812-2.756 3.5-4.6.725-1.931 1.175-3.949 1.34-5.997zm19.56 30.102c-.014-.668.019-1.337.1-2 .064-.613.198-1.217.4-1.8 2.1-.1 3.5-.5 4.3-1.5s1.1-2.7 1.1-5.3v-14.7c.048-1.049-.087-2.098-.4-3.1-.24-.807-.827-1.467-1.6-1.8-1.277-.475-2.64-.679-4-.6.017-.604.084-1.207.2-1.8.094-.567.298-1.111.6-1.6 1.343-.008 2.682-.142 4-.4 1.6-.3 3.1-.6 4.5-1 1.128-.262 2.208-.701 3.2-1.3.538.22.993.606 1.3 1.1.459.712.67 1.556.6 2.4v22.8c0 2.6.4 4.4 1.1 5.3.952 1.02 2.307 1.569 3.7 1.5.213.61.314 1.254.3 1.9.078.63.112 1.265.1 1.9-.964-.089-1.932-.122-2.9-.1-1.1 0-2.2-.1-3.3-.1h-6.86c-1.2 0-2.3.1-3.4.1-1.014-.022-2.029.012-3.04.1zm51.9-34.3c-.1 1.3-.1 2.7-.1 4.1 0 1.405.101 2.809.3 4.2-.655.352-1.365.589-2.1.7-.819.198-1.658.299-2.5.3-.106-1.404-.516-2.769-1.2-4-.693-1.259-1.69-2.324-2.9-3.1-1.315-.828-2.847-1.245-4.4-1.2-1.289-.05-2.559.338-3.6 1.1-.876.699-1.361 1.781-1.3 2.9-.018.776.191 1.54.6 2.2.627.914 1.491 1.64 2.5 2.1 1.964 1.077 4.003 2.013 6.1 2.8 2.396.767 4.682 1.843 6.8 3.2 1.405.901 2.599 2.095 3.5 3.5.749 1.452 1.127 3.067 1.1 4.7.046 2.093-.625 4.14-1.9 5.8-1.403 1.776-3.273 3.126-5.4 3.9-2.489.951-5.135 1.426-7.8 1.4-2.586.079-5.171-.156-7.7-.7-1.961-.522-3.869-1.225-5.7-2.1.214-1.019.314-2.059.3-3.1v-3.6c-.003-1.003-.07-2.005-.2-3 .644-.424 1.376-.698 2.14-.8.857-.162 1.729-.229 2.6-.2.4 3.2 1.4 5.6 3 7.1 1.641 1.629 3.89 2.5 6.2 2.4 1.638.12 3.267-.341 4.6-1.3 1.073-.799 1.705-2.062 1.7-3.4.029-.854-.216-1.695-.7-2.4-.645-.834-1.464-1.516-2.4-2-1.677-.888-3.415-1.657-5.2-2.3-2.301-.881-4.539-1.917-6.7-3.1-1.558-.849-2.868-2.09-3.8-3.6-.851-1.633-1.265-3.459-1.2-5.3-.046-1.567.41-3.109 1.3-4.4.818-1.298 1.954-2.365 3.3-3.1 1.367-.82 2.85-1.427 4.4-1.8 1.504-.383 3.048-.585 4.6-.6 2.221-.047 4.439.188 6.6.7 1.785.486 3.514 1.157 5.16 2zm15.21-11c.001-.915-.137-1.825-.41-2.7-.281-.816-.901-1.473-1.7-1.8-1.242-.477-2.572-.681-3.9-.6.017-.604.084-1.207.2-1.8.094-.567.298-1.111.6-1.6 1.343-.003 2.683-.137 4-.4 1.6-.3 3.1-.6 4.5-1 1.098-.26 2.145-.699 3.1-1.3.538.22.993.606 1.3 1.1.473.707.698 1.551.64 2.4v19.799l.1-.099c.012.701-.021 1.403-.1 2.1-.1.8-.3 1.6-.5 2.5l.6-1.2c.23-.478.534-.916.9-1.3 1.254-1.438 2.742-2.655 4.4-3.6 2.121-1.237 4.545-1.86 7-1.8 1.998-.028 3.978.381 5.8 1.2 1.832.828 3.342 2.233 4.3 4 1.189 2.35 1.74 4.971 1.6 7.6v13.2h-.24c0 2.7.4 4.5 1.1 5.4.853.97 2.111 1.488 3.4 1.4.18.521.314 1.056.4 1.6.088.696.122 1.398.1 2.1-1.2-.1-2.5-.2-4.1-.2h-8.4c-1.3 0-2.5.1-3.6.1s-2.1.1-2.9.1c-.022-.702.012-1.404.1-2.1.062-.549.196-1.087.4-1.6 1.489.115 2.954-.435 4-1.5.8-1 1.3-2.8 1.3-5.5v-10.9c0-3.6-.6-6.1-1.9-7.4-2.428-2.366-6.235-2.662-9-.7-1.449 1.086-2.588 2.535-3.3 4.2-.971 2.376-1.415 4.935-1.3 7.5v7.5c0 2.6.4 4.4 1.1 5.4s2.1 1.5 4.1 1.5c.192.551.326 1.121.4 1.7.088.696.122 1.398.1 2.1-.951-.089-1.906-.123-2.86-.1-1.1 0-2.3-.1-3.5-.1h-7.1c-1.3 0-2.5.1-3.6.1s-2.1.1-2.9.1c-.019-.735.014-1.47.1-2.2.072-.538.172-1.072.3-1.6 2.1 0 3.5-.5 4.3-1.5s1.2-2.8 1.2-5.4v-13.116l-.1.116-.039-21.3h-.001c0-.005 0-.01.001-.016l-.001-.384zm66.413 39.007c-.179.411-.387.81-.623 1.193-.626 1.011-1.401 1.921-2.3 2.7-1.073.849-2.294 1.493-3.6 1.9-1.648.519-3.373.756-5.1.7-3.4 0-6-.7-7.8-2.2-1.809-1.537-2.807-3.829-2.7-6.2-.055-1.847.47-3.666 1.5-5.2 1.012-1.443 2.304-2.667 3.8-3.6 1.602-.968 3.314-1.74 5.1-2.3 1.808-.56 3.644-1.028 5.5-1.4 1.8-.3 3.5-.6 5-.8 0-2 0-3.6-.1-4.7-.024-.953-.192-1.897-.5-2.8-.246-.666-.619-1.278-1.1-1.8-.556-.7-1.278-1.25-2.1-1.6-.816-.367-1.706-.538-2.6-.5-1.483-.077-2.933.467-4 1.5-.964 1.025-1.683 2.256-2.1 3.6-.391 1.271-.658 2.577-.8 3.9-.836-.025-1.671-.092-2.5-.2-.784-.076-1.556-.243-2.3-.5.1-1.4.1-2.9.1-4.5.006-1.448-.162-2.892-.5-4.3 2.279-1.09 4.656-1.96 7.1-2.6 2.291-.57 4.64-.872 7-.9 1.94-.06 3.873.245 5.7.9 1.362.478 2.594 1.265 3.6 2.3 1.359 1.374 2.297 3.11 2.7 5 .543 2.765.778 5.583.7 8.4v8.1c-.051 1.213.084 2.427.4 3.6.161.809.675 1.506 1.4 1.9.971.453 2.028.692 3.1.7.05.666.05 1.334 0 2-.107.68-.275 1.349-.5 2-1.617.1-3.222.334-4.8.7-1.632.368-3.211.939-4.7 1.7-.66-.309-1.191-.84-1.5-1.5-.459-1.001-.665-2.1-.6-3.2-.011-.602.022-1.203.1-1.8.007-.065.015-.129.023-.193zm-8.823 1.593c1.245-.041 2.456-.421 3.5-1.1 1.265-.883 2.267-2.093 2.9-3.5.879-1.909 1.29-4 1.2-6.1v-2.7c-1.4.2-2.8.5-4.2.8-1.337.312-2.643.748-3.9 1.3-1.129.537-2.121 1.323-2.9 2.3-.776 1.11-1.163 2.447-1.1 3.8 0 1.8.4 3.2 1.3 4 .897.756 2.027 1.18 3.2 1.2zm40.3 5.1c-3.3 0-5.7-.8-7.3-2.5s-2.4-4.4-2.4-8.2v-20.3c-.816-.292-1.651-.526-2.5-.7-1.056-.208-2.125-.341-3.2-.4.012-.671.079-1.34.2-2 .122-.655.324-1.293.6-1.9h5v-10c1.309-.298 2.583-.734 3.8-1.3 1.111-.537 2.152-1.209 3.1-2 .534.128.978.498 1.2 1 .264 1.079.366 2.191.3 3.3v9.2h10.1c-.022.67-.089 1.339-.2 2-.107.691-.309 1.364-.6 2-1.738-.009-3.475.092-5.2.3-1.412.152-2.815.385-4.2.7v18.6c-.024 1.482.144 2.961.5 4.4.204.978.733 1.859 1.5 2.5.695.515 1.535.795 2.4.8.95.036 1.898-.099 2.8-.4.837-.295 1.616-.735 2.3-1.3.717.842 1.139 1.896 1.2 3-1.154 1.067-2.516 1.884-4 2.4-1.755.51-3.572.779-5.4.8zm35.768-9.434c1.045-2.698 2.023-5.135 2.932-7.366 1.1-2.7 2.1-5.2 3.1-7.6 1.3-3.1 1.6-5.3 1.1-6.6s-1.8-1.9-3.7-2.1c-.289-.567-.491-1.173-.6-1.8-.16-.62-.228-1.26-.2-1.9 1.1.1 2.2.1 3.6.2s2.6.1 3.9.1 2.7 0 4-.1 2.5-.1 3.5-.2c-.017.704-.084 1.406-.2 2.1-.077.603-.282 1.182-.6 1.7-.805.202-1.555.578-2.2 1.1-.776.676-1.42 1.49-1.9 2.4-.6 1.1-1.3 2.6-2.1 4.5l-10.8 24.3c-.661.318-1.371.521-2.1.6-.657.138-1.332.172-2 .1-.5-1.2-1.2-2.7-2.1-4.7s-1.8-4.2-2.9-6.6-2.1-4.7-3.1-7-2-4.3-2.8-6.1-1.4-3-1.8-3.8c-.506-1.033-1.074-2.035-1.7-3-.36-.562-.838-1.04-1.4-1.4-.55-.311-1.168-.483-1.8-.5-.208-.581-.342-1.186-.4-1.8-.091-.662-.125-1.332-.1-2 1.2.1 2.5.1 4 .2s3.2.1 4.9.1h3.7c1.3 0 2.5-.1 3.6-.1s2.1-.1 3-.1c-.017.638-.084 1.273-.2 1.9-.075.612-.209 1.214-.4 1.8-2.5.2-4 .6-4.5 1.3s-.2 2 .8 4.1c.4.9 1 2.1 1.6 3.6s1.4 3.2 2.1 5.1 1.5 3.8 2.3 5.8c.534 1.334 1.023 2.58 1.468 3.766zm27.732 9.334c-1.277.062-2.53-.367-3.5-1.2-.827-.82-1.295-1.936-1.3-3.1-.007-1.245.5-2.44 1.4-3.3.978-.908 2.266-1.409 3.6-1.4.054-.002.108-.003.162-.003 2.384 0 4.364 1.92 4.438 4.303.086 1.317-.429 2.606-1.4 3.5-.944.809-2.157 1.237-3.4 1.2zm20.314-45.3c-1.388.021-2.735-.478-3.774-1.4-.968-.862-1.516-2.104-1.5-3.4-.068-1.442.52-2.841 1.6-3.8 2.179-1.862 5.421-1.862 7.6 0 .982.971 1.494 2.323 1.4 3.7-.003 1.292-.548 2.526-1.5 3.4-1.015 1.004-2.4 1.547-3.826 1.5zm-9.374 45c-.014-.668.019-1.337.1-2 .064-.613.198-1.217.4-1.8 2.1-.1 3.5-.5 4.3-1.5s1.1-2.7 1.1-5.3v-14.7c.048-1.049-.087-2.098-.4-3.1-.24-.807-.827-1.467-1.6-1.8-1.277-.475-2.64-.679-4-.6.017-.604.084-1.207.2-1.8.094-.567.298-1.111.6-1.6 1.343-.008 2.682-.142 4-.4 1.6-.3 3.1-.6 4.5-1 1.128-.262 2.208-.701 3.2-1.3.538.22.993.606 1.3 1.1.459.712.67 1.556.6 2.4v22.8c0 2.6.4 4.4 1.1 5.3.952 1.02 2.307 1.569 3.7 1.5.213.61.314 1.254.3 1.9.078.63.112 1.265.1 1.9-.964-.089-1.932-.122-2.9-.1-1.1 0-2.2-.1-3.3-.1h-6.9c-1.2 0-2.3.1-3.4.1-1.001-.022-2.003.011-3 .1zm31.7-16.978-.04.078v-8.2c.047-1.114-.088-2.229-.4-3.3-.24-.807-.827-1.467-1.6-1.8-1.232-.52-2.564-.759-3.9-.7.017-.604.084-1.207.2-1.8.094-.567.298-1.111.6-1.6 2.154-.124 4.295-.425 6.4-.9 1.796-.353 3.542-.924 5.2-1.7.538.22.993.606 1.3 1.1.457.763.668 1.648.605 2.534l.035-.034c.012.701-.021 1.403-.1 2.1-.1.8-.3 1.6-.5 2.5l.6-1.2c.23-.478.534-.916.9-1.3 1.254-1.438 2.742-2.655 4.4-3.6 2.121-1.237 4.545-1.86 7-1.8 1.997-.018 3.974.391 5.8 1.2 1.832.828 3.342 2.233 4.3 4 1.189 2.35 1.74 4.971 1.6 7.6v13.2h-.1c0 2.7.4 4.5 1.1 5.4.853.97 2.111 1.488 3.4 1.4.196.511.297 1.053.3 1.6.088.696.122 1.398.1 2.1-1.2-.1-2.5-.2-4.1-.2h-8.3c-1.2 0-2.4.1-3.5.1s-2.1.1-2.9.1c-.022-.702.012-1.404.1-2.1.062-.549.196-1.087.4-1.6 1.456.093 2.882-.455 3.9-1.5.8-1 1.3-2.8 1.3-5.5v-10.9c0-3.6-.6-6.1-1.9-7.4-1.353-1.338-3.198-2.062-5.1-2-1.432.03-2.824.482-4 1.3-1.449 1.086-2.588 2.535-3.3 4.2-.971 2.376-1.415 4.935-1.3 7.5v7.5c0 2.6.4 4.4 1.1 5.4s2.1 1.5 4 1.5c.192.551.326 1.121.4 1.7.088.696.122 1.398.1 2.1-.93-.091-1.865-.124-2.8-.1-1.1 0-2.3-.1-3.5-.1h-7.1c-1.2 0-2.4.1-3.6.1s-2.1.1-2.9.1c-.019-.735.014-1.47.1-2.2.049-.551.184-1.091.4-1.6 2.1 0 3.5-.5 4.2-1.5.8-1 1.1-2.8 1.1-5.4zm-261.44-42.522c5.243 0 9.5 4.257 9.5 9.5s-4.257 9.5-9.5 9.5-9.5-4.257-9.5-9.5 4.257-9.5 9.5-9.5z" fill="#860707"/><path d="m275.9 80.56-1.14 3.04c-.515-.368-1.127-.577-1.76-.6-.468-.038-.934.106-1.3.4-.455.389-.771.915-.9 1.5-.262 1.518-.363 3.06-.3 4.6v4.2h-3.74v-13.8h3.5v2c.403-.704.948-1.317 1.6-1.8.484-.284 1.039-.423 1.6-.4.86-.016 1.707.214 2.44.663v-.463h1.7v-2.7l3.8-2.1v4.9h2.6v2.8h-2.6v5.5c-.048.668-.015 1.34.1 2 .1.2.2.3.3.5.182.111.388.179.6.2.51-.039 1.014-.14 1.5-.3l.3 2.8c-.954.376-1.976.546-3 .5-.614.015-1.224-.087-1.8-.3-.476-.182-.892-.494-1.2-.9-.285-.416-.457-.898-.5-1.4-.105-.862-.139-1.732-.1-2.6v-6h-1.7zm-122.64 13.14-4.7-19h4l2.9 13 3.6-13h4.7l3.4 13.3 3-13.3h4l-4.7 19h-4.2l-3.9-14.2-3.9 14.2zm30.74-4.4 3.7.6c-.411 1.228-1.221 2.284-2.3 3-1.171.716-2.529 1.064-3.9 1-2.093.152-4.138-.703-5.5-2.3-.951-1.379-1.442-3.025-1.4-4.7-.116-1.964.529-3.899 1.8-5.4 1.217-1.283 2.933-1.977 4.7-1.9 1.875-.081 3.698.648 5 2 1.2 1.4 1.8 3.4 1.7 6.2h-9.4c-.06.922.266 1.828.9 2.5.574.596 1.373.923 2.2.9.541.003 1.069-.173 1.5-.5.534-.284.905-.803 1-1.4zm.2-3.7c.064-.874-.224-1.739-.8-2.4-.504-.505-1.187-.792-1.9-.8-.769-.021-1.506.311-2 .9-.544.679-.828 1.53-.8 2.4h5.5zm14.36 8.1v-19h8.3c1.549-.048 3.097.121 4.6.5.948.323 1.758.958 2.3 1.8.596.886.91 1.932.9 3 .063 1.295-.407 2.56-1.3 3.5-1.083.988-2.446 1.616-3.9 1.8.792.4 1.504.942 2.1 1.6.815.973 1.55 2.01 2.2 3.1l2.4 3.7h-4.7l-2.9-4.1c-.621-.99-1.324-1.926-2.1-2.8-.351-.334-.757-.605-1.2-.8-.657-.143-1.328-.21-2-.2h-.8v7.9zm3.9-11h3c1.17.036 2.341-.03 3.5-.2.44-.147.824-.427 1.1-.8.281-.411.422-.902.4-1.4.02-.544-.157-1.077-.5-1.5-.399-.407-.932-.655-1.5-.7-.3 0-1.3-.1-2.9-.1h-3.1zm24 6.6 3.7.6c-.411 1.228-1.221 2.284-2.3 3-1.171.716-2.529 1.064-3.9 1-2.093.152-4.138-.703-5.5-2.3-.951-1.379-1.442-3.025-1.4-4.7-.116-1.964.529-3.899 1.8-5.4 1.217-1.283 2.933-1.977 4.7-1.9 1.875-.081 3.698.648 5 2 1.2 1.4 1.8 3.4 1.7 6.2h-9.4c-.06.922.266 1.828.9 2.5.574.596 1.373.923 2.2.9.541.003 1.069-.173 1.5-.5.534-.284.905-.803 1-1.4zm.2-3.7c.064-.874-.224-1.739-.8-2.4-.504-.505-1.187-.792-1.9-.8-.769-.021-1.506.311-2 .9-.544.679-.828 1.53-.8 2.4h5.5zm6.8-5.7h3.4v2c.471-.689 1.085-1.269 1.8-1.7 2.294-1.143 5.09-.609 6.8 1.3 1.18 1.468 1.785 3.318 1.7 5.2.099 1.945-.504 3.863-1.7 5.4-1.041 1.234-2.586 1.933-4.2 1.9-.729 0-1.449-.171-2.1-.5-.764-.398-1.443-.942-2-1.6v6.9h-3.7zm3.6 6.6c-.095 1.202.223 2.402.9 3.4.565.69 1.408 1.094 2.3 1.1.849.032 1.666-.339 2.2-1 .678-.96.997-2.129.9-3.3.083-1.139-.236-2.271-.9-3.2-.534-.661-1.351-1.032-2.2-1-.878-.033-1.725.336-2.3 1-.651.859-.971 1.925-.9 3zm12.2.1c.002-1.224.311-2.427.9-3.5.599-1.098 1.502-2.001 2.6-2.6 1.171-.613 2.478-.923 3.8-.9 1.958-.043 3.859.674 5.3 2 1.374 1.361 2.148 3.217 2.148 5.151 0 3.977-3.273 7.25-7.25 7.25-.033 0-.065-.001-.098-.001-1.287-.001-2.556-.31-3.7-.9-1.139-.53-2.084-1.405-2.7-2.5-.716-1.207-1.063-2.598-1-4zm3.9.2c-.104 1.126.257 2.247 1 3.1.642.701 1.55 1.1 2.5 1.1s1.858-.399 2.5-1.1c.742-.893 1.102-2.044 1-3.2.087-1.124-.272-2.239-1-3.1-.642-.701-1.55-1.1-2.5-1.1s-1.858.399-2.5 1.1c-.742.893-1.102 2.044-1 3.2zm33.3 3.2h3.7v2.6c.031.844-.07 1.688-.3 2.5-.173.643-.562 1.208-1.1 1.6-.556.539-1.247.919-2 1.1l-.6-1.4c.634-.136 1.2-.49 1.6-1 .342-.499.518-1.095.5-1.7h-1.8zm20 3.7v-8l-7.2-11h4.6l4.6 7.5 4.5-7.5h4.5l-7.2 11v8zm10.1-7.1c.002-1.224.311-2.427.9-3.5.599-1.098 1.502-2.001 2.6-2.6 1.171-.613 2.478-.923 3.8-.9 1.958-.043 3.859.674 5.3 2 1.374 1.361 2.147 3.217 2.147 5.15 0 3.977-3.272 7.25-7.25 7.25h-.057c-1.287-.001-2.556-.31-3.7-.9-1.139-.53-2.084-1.405-2.7-2.5-.729-1.203-1.091-2.594-1.04-4zm3.9.2c-.104 1.126.257 2.247 1 3.1.642.701 1.55 1.1 2.5 1.1s1.858-.399 2.5-1.1c.742-.893 1.102-2.044 1-3.2.087-1.124-.272-2.239-1-3.1-.642-.701-1.55-1.1-2.5-1.1s-1.858.399-2.5 1.1c-.742.893-1.102 2.044-1 3.2zm23 6.9v-2.1c-.52.719-1.206 1.303-2 1.7-.841.408-1.766.613-2.7.6-.903.015-1.795-.191-2.6-.6-.723-.352-1.292-.957-1.6-1.7-.363-.957-.533-1.977-.5-3v-8.7h3.7v6.3c-.03 1.203.037 2.407.2 3.6.115.431.405.794.8 1 .405.294.901.436 1.4.4.601-.012 1.188-.185 1.7-.5.494-.282.855-.75 1-1.3.221-1.221.321-2.46.3-3.7v-5.8h3.7v13.8zm14.9-19h7.3c1.247-.063 2.496.072 3.7.4 1.098.306 2.097.891 2.9 1.7.826.902 1.471 1.955 1.9 3.1.437 1.459.639 2.978.6 4.5.035 1.358-.168 2.712-.6 4-.434 1.277-1.152 2.44-2.1 3.4-.801.715-1.761 1.229-2.8 1.5-1.138.317-2.32.452-3.5.4h-7.4zm4 3.2v12.6h2.9c.805.011 1.608-.056 2.4-.2.587-.142 1.134-.416 1.6-.8.49-.499.835-1.121 1-1.8.317-1.138.452-2.32.4-3.5.06-1.148-.075-2.298-.4-3.4-.199-.688-.579-1.309-1.1-1.8-.534-.417-1.146-.723-1.8-.9-1.06-.152-2.13-.219-3.2-.2zm24 11.4 3.7.6c-.411 1.228-1.221 2.284-2.3 3-1.171.716-2.529 1.064-3.9 1-2.093.152-4.138-.703-5.5-2.3-.951-1.379-1.442-3.025-1.4-4.7-.116-1.964.529-3.899 1.8-5.4 1.217-1.283 2.933-1.977 4.7-1.9 1.875-.081 3.698.648 5 2 1.2 1.4 1.8 3.4 1.7 6.2h-9.4c-.06.922.266 1.828.9 2.5.574.596 1.373.923 2.2.9.541.003 1.069-.173 1.5-.5.485-.337.839-.832 1-1.4zm.2-3.7c.064-.874-.224-1.739-.8-2.4-.504-.505-1.187-.792-1.9-.8-.769-.021-1.506.311-2 .9-.544.679-.828 1.53-.8 2.4h5.5zm19.1-1.6-3.7.6c-.055-.615-.341-1.187-.8-1.6-.477-.386-1.09-.566-1.7-.5-.83-.043-1.638.287-2.2.9-.644.897-.929 2.003-.8 3.1-.083 1.22.195 2.437.8 3.5.562.682 1.418 1.054 2.3 1 .624.034 1.236-.182 1.7-.6.547-.537.899-1.241 1-2l3.7.6c-.274 1.454-1.054 2.765-2.2 3.7-1.285.902-2.831 1.359-4.4 1.3-1.859.097-3.675-.593-5-1.9-1.27-1.462-1.917-3.367-1.8-5.3-.136-1.954.553-3.878 1.9-5.3 1.315-1.323 3.138-2.016 5-1.9 1.447-.059 2.877.324 4.1 1.1 1.074.812 1.819 1.984 2.1 3.3zm2.9-6v-3.4h3.7v3.4zm0 15.7v-13.8h3.7v13.8zm20.6 0h-3.5v-2c-.538.729-1.218 1.342-2 1.8-.737.398-1.562.604-2.4.6-1.61.012-3.146-.683-4.2-1.9-1.223-1.484-1.832-3.382-1.7-5.3-.118-1.917.489-3.809 1.7-5.3 1.108-1.189 2.676-1.845 4.3-1.8 1.585-.031 3.099.671 4.1 1.9v-6.8h3.7zm-10-7.2c-.076 1.1.131 2.202.6 3.2.506.895 1.472 1.436 2.5 1.4.863-.006 1.677-.413 2.2-1.1.664-.929.983-2.061.9-3.2.11-1.204-.209-2.408-.9-3.4-.562-.682-1.418-1.054-2.3-1-.849-.032-1.666.339-2.2 1-.585.924-.865 2.009-.8 3.1zm21.9 2.8 3.7.6c-.411 1.228-1.221 2.284-2.3 3-1.171.716-2.529 1.064-3.9 1-2.093.152-4.138-.703-5.5-2.3-.951-1.379-1.442-3.025-1.4-4.7-.116-1.964.529-3.899 1.8-5.4 1.217-1.283 2.933-1.977 4.7-1.9 1.875-.081 3.698.648 5 2 1.2 1.4 1.8 3.4 1.7 6.2h-9.4c-.06.922.266 1.828.9 2.5.574.596 1.373.923 2.2.9.541.003 1.069-.173 1.5-.5.485-.337.839-.832 1-1.4zm.2-3.7c.064-.874-.224-1.739-.8-2.4-.504-.505-1.187-.792-1.9-.8-.769-.021-1.506.311-2 .9-.544.679-.828 1.53-.8 2.4h5.5z" fill="#828282"/><g fill-rule="nonzero"><path d="m104.46.1h-8.4c-14.4 0-28.8-.1-43.2-.1-4.4 0-6.6 1.9-7.2 6.1-.7 4.6-1.5 9.1-2.1 13.7-.186 2.3-1.784 4.257-4 4.9-1.35.5-2.764.803-4.2.9-6.1.1-12.2.1-18.3 0-4.5 0-7 1.8-7.7 6.3-1.5 9.7-2.9 19.3-4.3 29-1.7 11.5-3.3 22.9-5 34.4-.3 2.1.5 4.1 2.6 4.3 8.3.8 44.9.2 54.8.2 4.1 0 6.2-1.8 6.8-5.8.6-4.4 1-8.8 1.8-13.1.268-1.564 1.084-2.982 2.3-4 1.811-1.121 3.873-1.774 6-1.9 6.4-.3 12.9-.2 19.4-.3 3.5-.1 5.6-1.7 6.5-5.1.6-2.4 1.1-4.9 1.6-7.4.5-2.8.4-2.8-2.4-2.8h-22.2c-4.5 0-6.8-3.1-6.5-7.1.3-3.3 4.7-32.8 4.9-33.7.6-4.1 3.4-7 7.6-7.2s8.4-.1 12.6-.2h12.7c.3-1.9.6-3.6.9-5.2.6-3.4-1.4-5.8-5-5.9z" fill="#ef5527"/><path d="m68.76 69.4c-.2 3.4-2.3 5.9-5.4 6-7.8.4-15.7.4-23.6.1-3.1-.1-4.5-2.8-4-5.9 1.8-12.6 3.6-25.2 5.3-37.7.6-4.6 3.3-7 7.9-7 7.5-.1 15.1 0 22.6 0h3c-.9 6.6-5.4 39.5-5.8 44.5z" fill="#fff"/><path d="m113.76 52.1c-.747 4.416-4.524 7.732-9 7.9h-29c-.063.002-.127.003-.19.003-3.73 0-6.8-3.07-6.8-6.8 0-.37.03-.739.09-1.103l4.5-32.8c.747-4.416 4.524-7.732 9-7.9h37l-1.1 7.9z" fill="#f0ae1f"/><path d="m113.66 11.4-14.9 25.7s-2-7.5-2.6-10.2c-.5-2-3.4-2-3.4-2l-31.1-.1v5.3h15.8s-1.46 12.3-1.7 14.5-.2 2.8 2.7 3 3.3-.3 3.5-1.2c1-5.5 2.2-16.2 2.2-16.2l5.7-.1s3.9 14.6 4.3 15.7c.5 1.5 1.8 1.9 3.6 1.9 1.269.062 2.47-.597 3.1-1.7l17.9-29c.6-4.3.8-5.6.8-5.6z" fill="#fff"/></g></g></svg>